<svg width="1444" height="159" viewBox="0 0 1444 159" fill="none" xmlns="http://www.w3.org/2000/svg">
<path d="M2 2L32.627 19.1447L63.265 2L93.9029 19.1447L124.541 2L155.168 19.1447L185.806 2L216.444 19.1447L247.082 2L277.72 19.1447L308.358 2L338.985 19.1447L369.622 2L400.26 19.1447L430.909 2L461.547 19.1447L492.185 2L522.823 19.1447L553.461 2L584.099 19.1447M584.099 19.1447L614.748 2L645.386 19.1447L676.024 2L706.662 19.1447L737.3 2L767.948 19.1447L798.586 2L829.235 19.1447L859.884 2L890.533 19.1447M584.099 19.1447L553.467 2M584.099 19.1447L614.732 2L645.37 19.1447L676.008 2L706.635 19.1447L737.273 2L767.911 19.1447L798.549 2L829.187 19.1447L859.825 2L890.452 19.1447L921.09 2L951.728 19.1447L982.376 2L1013.01 19.1447L1043.65 2L1074.29 19.1447L1104.93 2L1135.57 19.1447L1166.21 2L1196.85 19.1447L1227.49 2L1258.13 19.1447L1288.77 2L1319.42 19.1447L1350.05 2L1380.7 19.1447L1411.35 2L1442 19.1447M2 139.312L32.627 156.457L63.265 139.312L93.9029 156.457L124.541 139.312L155.168 156.457L185.806 139.312L216.444 156.457L247.082 139.312L277.72 156.457L308.358 139.312L338.985 156.457L369.622 139.312L400.26 156.457L430.909 139.312L461.547 156.457L492.185 139.312L522.823 156.457L553.461 139.312L584.099 156.457M584.099 156.457L614.748 139.312L645.386 156.457L676.024 139.312L706.662 156.457L737.3 139.312L767.948 156.457L798.586 139.312L829.235 156.457L859.884 139.312L890.533 156.457M584.099 156.457L553.467 139.312M584.099 156.457L614.732 139.312L645.37 156.457L676.008 139.312L706.635 156.457L737.273 139.312L767.911 156.457L798.549 139.312L829.187 156.457L859.825 139.312L890.452 156.457L921.09 139.312L951.728 156.457L982.376 139.312L1013.01 156.457L1043.65 139.312L1074.29 156.457L1104.93 139.312L1135.57 156.457L1166.21 139.312L1196.85 156.457L1227.49 139.312L1258.13 156.457L1288.77 139.312L1319.42 156.457L1350.05 139.312L1380.7 156.457L1411.35 139.312L1442 156.457M2 70.6563L32.627 87.801L63.265 70.6563L93.9029 87.801L124.541 70.6563L155.168 87.801L185.806 70.6563L216.444 87.801L247.082 70.6563L277.72 87.801L308.358 70.6563L338.985 87.801L369.622 70.6563L400.26 87.801L430.909 70.6563L461.547 87.801L492.185 70.6563L522.823 87.801L553.461 70.6563L584.099 87.801M584.099 87.801L614.748 70.6563L645.386 87.801L676.024 70.6563L706.662 87.801L737.3 70.6563L767.948 87.801L798.586 70.6563L829.235 87.801L859.884 70.6563L890.533 87.801M584.099 87.801L553.467 70.6563M584.099 87.801L614.732 70.6563L645.37 87.801L676.008 70.6563L706.635 87.801L737.273 70.6563L767.911 87.801L798.549 70.6563L829.187 87.801L859.825 70.6563L890.452 87.801L921.09 70.6563L951.728 87.801L982.376 70.6563L1013.01 87.801L1043.65 70.6563L1074.29 87.801L1104.93 70.6563L1135.57 87.801L1166.21 70.6563L1196.85 87.801L1227.49 70.6563L1258.13 87.801L1288.77 70.6563L1319.42 87.801L1350.05 70.6563L1380.7 87.801L1411.35 70.6563L1442 87.801M2 36.2897L32.627 53.5116L63.265 36.2897L93.9029 53.5116L124.541 36.2897L155.168 53.5116L185.806 36.2897L216.444 53.5116L247.082 36.2897L277.72 53.5116L308.358 36.2897L338.985 53.5116L369.622 36.2897L400.26 53.5116L430.909 36.2897L461.547 53.5116L492.185 36.2897L522.823 53.5116L553.461 36.2897L584.099 53.5116M584.099 53.5116L614.748 36.2897L645.386 53.5116L676.024 36.2897L706.662 53.5116L737.3 36.2897L767.948 53.5116L798.586 36.2897L829.235 53.5116L859.884 36.2897L890.533 53.5116M584.099 53.5116L553.467 36.2897M584.099 53.5116L614.732 36.2897L645.37 53.5116L676.008 36.2897L706.635 53.5116L737.273 36.2897L767.911 53.5116L798.549 36.2897L829.187 53.5116L859.825 36.2897L890.452 53.5116L921.09 36.2897L951.728 53.5116L982.376 36.2897L1013.01 53.5116L1043.65 36.2897L1074.29 53.5116L1104.93 36.2897L1135.57 53.5116L1166.21 36.2897L1196.85 53.5116L1227.49 36.2897L1258.13 53.5116L1288.77 36.2897L1319.42 53.5116L1350.05 36.2897L1380.7 53.5116L1411.35 36.2897L1442 53.5116M2 104.946L32.627 122.168L63.265 104.946L93.9029 122.168L124.541 104.946L155.168 122.168L185.806 104.946L216.444 122.168L247.082 104.946L277.72 122.168L308.358 104.946L338.985 122.168L369.622 104.946L400.26 122.168L430.909 104.946L461.547 122.168L492.185 104.946L522.823 122.168L553.461 104.946L584.099 122.168M584.099 122.168L614.748 104.946L645.386 122.168L676.024 104.946L706.662 122.168L737.3 104.946L767.948 122.168L798.586 104.946L829.235 122.168L859.884 104.946L890.533 122.168M584.099 122.168L553.467 104.946M584.099 122.168L614.732 104.946L645.37 122.168L676.008 104.946L706.635 122.168L737.273 104.946L767.911 122.168L798.549 104.946L829.187 122.168L859.825 104.946L890.452 122.168L921.09 104.946L951.728 122.168L982.376 104.946L1013.01 122.168L1043.65 104.946L1074.29 122.168L1104.93 104.946L1135.57 122.168L1166.21 104.946L1196.85 122.168L1227.49 104.946L1258.13 122.168L1288.77 104.946L1319.42 122.168L1350.05 104.946L1380.7 122.168L1411.35 104.946L1442 122.168M2 19.145L32.627 36.2897L63.265 19.145L93.9029 36.2897L124.541 19.145L155.168 36.2897L185.806 19.145L216.444 36.2897L247.082 19.145L277.72 36.2897L308.358 19.145L338.985 36.2897L369.622 19.145L400.26 36.2897L430.909 19.145L461.547 36.2897L492.185 19.145L522.823 36.2897L553.461 19.145L584.099 36.2897M584.099 36.2897L614.748 19.145L645.386 36.2897L676.024 19.145L706.662 36.2897L737.3 19.145L767.948 36.2897L798.586 19.145L829.235 36.2897L859.884 19.145L890.533 36.2897M584.099 36.2897L553.467 19.145M584.099 36.2897L614.732 19.145L645.37 36.2897L676.008 19.145L706.635 36.2897L737.273 19.145L767.911 36.2897L798.549 19.145L829.187 36.2897L859.825 19.145L890.452 36.2897L921.09 19.145L951.728 36.2897L982.376 19.145L1013.01 36.2897L1043.65 19.145L1074.29 36.2897L1104.93 19.145L1135.57 36.2897L1166.21 19.145L1196.85 36.2897L1227.49 19.145L1258.13 36.2897L1288.77 19.145L1319.42 36.2897L1350.05 19.145L1380.7 36.2897L1411.35 19.145L1442 36.2897M2 87.801L32.627 104.946L63.265 87.801L93.9029 104.946L124.541 87.801L155.168 104.946L185.806 87.801L216.444 104.946L247.082 87.801L277.72 104.946L308.358 87.801L338.985 104.946L369.622 87.801L400.26 104.946L430.909 87.801L461.547 104.946L492.185 87.801L522.823 104.946L553.461 87.801L584.099 104.946M584.099 104.946L614.748 87.801L645.386 104.946L676.024 87.801L706.662 104.946L737.3 87.801L767.948 104.946L798.586 87.801L829.235 104.946L859.884 87.801L890.533 104.946M584.099 104.946L553.467 87.801M584.099 104.946L614.732 87.801L645.37 104.946L676.008 87.801L706.635 104.946L737.273 87.801L767.911 104.946L798.549 87.801L829.187 104.946L859.825 87.801L890.452 104.946L921.09 87.801L951.728 104.946L982.376 87.801L1013.01 104.946L1043.65 87.801L1074.29 104.946L1104.93 87.801L1135.57 104.946L1166.21 87.801L1196.85 104.946L1227.49 87.801L1258.13 104.946L1288.77 87.801L1319.42 104.946L1350.05 87.801L1380.7 104.946L1411.35 87.801L1442 104.946M2 53.5116L32.627 70.6563L63.265 53.5116L93.9029 70.6563L124.541 53.5116L155.168 70.6563L185.806 53.5116L216.444 70.6563L247.082 53.5116L277.72 70.6563L308.358 53.5116L338.985 70.6563L369.622 53.5116L400.26 70.6563L430.909 53.5116L461.547 70.6563L492.185 53.5116L522.823 70.6563L553.461 53.5116L584.099 70.6563M584.099 70.6563L614.748 53.5116L645.386 70.6563L676.024 53.5116L706.662 70.6563L737.3 53.5116L767.948 70.6563L798.586 53.5116L829.235 70.6563L859.884 53.5116L890.533 70.6563M584.099 70.6563L553.467 53.5116M584.099 70.6563L614.732 53.5116L645.37 70.6563L676.008 53.5116L706.635 70.6563L737.273 53.5116L767.911 70.6563L798.549 53.5116L829.187 70.6563L859.825 53.5116L890.452 70.6563L921.09 53.5116L951.728 70.6563L982.376 53.5116L1013.01 70.6563L1043.65 53.5116L1074.29 70.6563L1104.93 53.5116L1135.57 70.6563L1166.21 53.5116L1196.85 70.6563L1227.49 53.5116L1258.13 70.6563L1288.77 53.5116L1319.42 70.6563L1350.05 53.5116L1380.7 70.6563L1411.35 53.5116L1442 70.6563M2 122.167L32.627 139.312L63.265 122.167L93.9029 139.312L124.541 122.167L155.168 139.312L185.806 122.167L216.444 139.312L247.082 122.167L277.72 139.312L308.358 122.167L338.985 139.312L369.622 122.167L400.26 139.312L430.909 122.167L461.547 139.312L492.185 122.167L522.823 139.312L553.461 122.167L584.099 139.312M584.099 139.312L614.748 122.167L645.386 139.312L676.024 122.167L706.662 139.312L737.3 122.167L767.948 139.312L798.586 122.167L829.235 139.312L859.884 122.167L890.533 139.312M584.099 139.312L553.467 122.167M584.099 139.312L614.732 122.167L645.37 139.312L676.008 122.167L706.635 139.312L737.273 122.167L767.911 139.312L798.549 122.167L829.187 139.312L859.825 122.167L890.452 139.312L921.09 122.167L951.728 139.312L982.376 122.167L1013.01 139.312L1043.65 122.167L1074.29 139.312L1104.93 122.167L1135.57 139.312L1166.21 122.167L1196.85 139.312L1227.49 122.167L1258.13 139.312L1288.77 122.167L1319.42 139.312L1350.05 122.167L1380.7 139.312L1411.35 122.167L1442 139.312" stroke="#58A0CC" stroke-opacity="0.06" stroke-width="3.34349" stroke-miterlimit="10" stroke-linecap="round"/>
</svg>
